<svg width="0" height="0" class="hidden">
  <symbol id="caret-right" xmlns="http://www.w3.org/2000/svg" fill="currentColor" viewBox="0 0 256 256">
    <path d="M181.66,133.66l-80,80a8,8,0,0,1-11.32-11.32L164.69,128,90.34,53.66a8,8,0,0,1,11.32-11.32l80,80A8,8,0,0,1,181.66,133.66Z"></path>
  </symbol>
  <symbol id="menu" xmlns="http://www.w3.org/2000/svg" fill="currentColor" viewBox="0 0 256 256">
    <path d="M224,128a8,8,0,0,1-8,8H40a8,8,0,0,1,0-16H216A8,8,0,0,1,224,128ZM40,72H216a8,8,0,0,0,0-16H40a8,8,0,0,0,0,16ZM216,184H40a8,8,0,0,0,0,16H216a8,8,0,0,0,0-16Z"></path>
  </symbol>
  <symbol id="close" xmlns="http://www.w3.org/2000/svg" fill="currentColor" viewBox="0 0 256 256">
    <path d="M205.66,194.34a8,8,0,0,1-11.32,11.32L128,139.31,61.66,205.66a8,8,0,0,1-11.32-11.32L116.69,128,50.34,61.66A8,8,0,0,1,61.66,50.34L128,116.69l66.34-66.35a8,8,0,0,1,11.32,11.32L139.31,128Z"></path>
  </symbol>
</svg>