<svg width="0" height="0" class="hidden" xmlns="http://www.w3.org/2000/svg">
  <symbol id="caret-right" fill="currentColor" viewBox="0 0 256 256">
    <path d="M181.66,133.66l-80,80a8,8,0,0,1-11.32-11.32L164.69,128,90.34,53.66a8,8,0,0,1,11.32-11.32l80,80A8,8,0,0,1,181.66,133.66Z"></path>
  </symbol>
  <symbol id="menu" fill="currentColor" viewBox="0 0 256 256">
    <path d="M224,128a8,8,0,0,1-8,8H40a8,8,0,0,1,0-16H216A8,8,0,0,1,224,128ZM40,72H216a8,8,0,0,0,0-16H40a8,8,0,0,0,0,16ZM216,184H40a8,8,0,0,0,0,16H216a8,8,0,0,0,0-16Z"></path>
  </symbol>
  <symbol id="close"  fill="currentColor" viewBox="0 0 256 256">
    <path d="M205.66,194.34a8,8,0,0,1-11.32,11.32L128,139.31,61.66,205.66a8,8,0,0,1-11.32-11.32L116.69,128,50.34,61.66A8,8,0,0,1,61.66,50.34L128,116.69l66.34-66.35a8,8,0,0,1,11.32,11.32L139.31,128Z"></path>
  </symbol>
  <symbol id="connect" fill="currentColor" viewBox="0 0 256 256">
    <path d="M231.4,44.34s0,.1,0,.15l-58.2,191.94a15.88,15.88,0,0,1-14,11.51q-.69.06-1.38.06a15.86,15.86,0,0,1-14.42-9.15L107,164.15a4,4,0,0,1,.77-4.58l57.92-57.92a8,8,0,0,0-11.31-11.31L96.43,148.26a4,4,0,0,1-4.58.77L17.08,112.64a16,16,0,0,1,2.49-29.8l191.94-58.2.15,0A16,16,0,0,1,231.4,44.34Z"></path>
  </symbol>
  <symbol id="github" fill="currentColor" viewBox="0 0 256 256">
    <path d="M208.31,75.68A59.78,59.78,0,0,0,202.93,28,8,8,0,0,0,196,24a59.75,59.75,0,0,0-48,24H124A59.75,59.75,0,0,0,76,24a8,8,0,0,0-6.93,4,59.78,59.78,0,0,0-5.38,47.68A58.14,58.14,0,0,0,56,104v8a56.06,56.06,0,0,0,48.44,55.47A39.8,39.8,0,0,0,96,192v8H72a24,24,0,0,1-24-24A40,40,0,0,0,8,136a8,8,0,0,0,0,16,24,24,0,0,1,24,24,40,40,0,0,0,40,40H96v16a8,8,0,0,0,16,0V192a24,24,0,0,1,48,0v40a8,8,0,0,0,16,0V192a39.8,39.8,0,0,0-8.44-24.53A56.06,56.06,0,0,0,216,112v-8A58.14,58.14,0,0,0,208.31,75.68ZM200,112a40,40,0,0,1-40,40H112a40,40,0,0,1-40-40v-8a41.74,41.74,0,0,1,6.9-22.48A8,8,0,0,0,80,73.83a43.81,43.81,0,0,1,.79-33.58,43.88,43.88,0,0,1,32.32,20.06A8,8,0,0,0,119.82,64h32.35a8,8,0,0,0,6.74-3.69,43.87,43.87,0,0,1,32.32-20.06A43.81,43.81,0,0,1,192,73.83a8.09,8.09,0,0,0,1,7.65A41.72,41.72,0,0,1,200,104Z"></path>
  </symbol>
  <symbol id="twitch" fill="currentColor" viewBox="0 0 256 256">
    <path d="M208,32H48A16,16,0,0,0,32,48V192a16,16,0,0,0,16,16H64v32a8,8,0,0,0,13.12,6.15L122.9,208h42.2a16,16,0,0,0,10.25-3.71l42.89-35.75A15.93,15.93,0,0,0,224,156.25V48A16,16,0,0,0,208,32Zm0,124.25L165.1,192H120a8,8,0,0,0-5.12,1.85L80,222.92V200a8,8,0,0,0-8-8H48V48H208ZM160,136V88a8,8,0,0,1,16,0v48a8,8,0,0,1-16,0Zm-48,0V88a8,8,0,0,1,16,0v48a8,8,0,0,1-16,0Z"></path>
  </symbol>
  <symbol id="xtwitter" fill="currentColor" viewBox="0 0 256 256">
    <path d="M214.75,211.71l-62.6-98.38,61.77-67.95a8,8,0,0,0-11.84-10.76L143.24,99.34,102.75,35.71A8,8,0,0,0,96,32H48a8,8,0,0,0-6.75,12.3l62.6,98.37-61.77,68a8,8,0,1,0,11.84,10.76l58.84-64.72,40.49,63.63A8,8,0,0,0,160,224h48a8,8,0,0,0,6.75-12.29ZM164.39,208,62.57,48h29L193.43,208Z"></path>
  </symbol>
  <symbol id="instagram" fill="currentColor" viewBox="0 0 256 256">
    <path d="M128,80a48,48,0,1,0,48,48A48.05,48.05,0,0,0,128,80Zm0,80a32,32,0,1,1,32-32A32,32,0,0,1,128,160ZM176,24H80A56.06,56.06,0,0,0,24,80v96a56.06,56.06,0,0,0,56,56h96a56.06,56.06,0,0,0,56-56V80A56.06,56.06,0,0,0,176,24Zm40,152a40,40,0,0,1-40,40H80a40,40,0,0,1-40-40V80A40,40,0,0,1,80,40h96a40,40,0,0,1,40,40ZM192,76a12,12,0,1,1-12-12A12,12,0,0,1,192,76Z"></path>
  </symbol>
  <symbol id="linkedin" fill="currentColor" viewBox="0 0 256 256">
    <path d="M216,24H40A16,16,0,0,0,24,40V216a16,16,0,0,0,16,16H216a16,16,0,0,0,16-16V40A16,16,0,0,0,216,24Zm0,192H40V40H216V216ZM96,112v64a8,8,0,0,1-16,0V112a8,8,0,0,1,16,0Zm88,28v36a8,8,0,0,1-16,0V140a20,20,0,0,0-40,0v36a8,8,0,0,1-16,0V112a8,8,0,0,1,15.79-1.78A36,36,0,0,1,184,140ZM100,84A12,12,0,1,1,88,72,12,12,0,0,1,100,84Z"></path>
  </symbol>
</svg>